<svg width="58" height="39" viewBox="0 0 58 39" fill="none" xmlns="http://www.w3.org/2000/svg">
<path d="M33.9091 4.24251H33.3219V6.08401H31.5597V4.24251H30.9724C30.9724 3.52234 30.3867 2.93673 29.6669 2.93673H20.0286C19.3084 2.93673 18.7228 3.52234 18.7228 4.24251H18.1354V6.08401H16.3734V4.24251H15.7861C15.7861 1.90317 17.6892 3.68228e-09 20.0286 3.68228e-09H29.6669C32.006 -9.6663e-05 33.9091 1.90308 33.9091 4.24251ZM55.1087 9.80045C52.7053 9.62887 49.6822 10.6533 49.6822 10.6533L41.3323 6.20445L39.4796 6.54366L44.2547 11.8768L40.1123 13.0937V11.2701C40.1123 9.09749 38.3512 7.33642 36.1788 7.33642H13.5165C11.3439 7.33642 9.58286 9.09749 9.58286 11.2701V27.3647C5.08853 31.176 1.19838 35.7081 0 38.5214C1.9197 36.2946 7.45812 31.2998 15.2583 26.5706V13.3671C15.2583 12.6753 15.8189 12.1146 16.5108 12.1146C17.2026 12.1146 17.7633 12.6753 17.7633 13.3671V25.1055C19.6059 24.0698 21.5561 23.0644 23.5953 22.1203V13.3671C23.5953 12.6753 24.156 12.1146 24.8478 12.1146C25.5395 12.1146 26.1003 12.6753 26.1003 13.3671V21.0053C28.1967 20.1031 30.1472 19.3349 31.9323 18.6858V13.3671C31.9323 12.6753 32.4931 12.1146 33.1848 12.1146C33.8765 12.1146 34.4373 12.6753 34.4373 13.3671V17.8137C41.0013 15.6294 44.7769 15.1937 44.7769 15.1937L42.5327 21.717L44.4116 21.1952L50.8306 13.9935C50.8306 13.9935 56.3754 13.2498 57.5878 12.1817C58.9653 10.9679 56.5699 9.90485 55.1087 9.80045Z" fill="#40C8FF"/>
</svg>
